<svg xmlns="http://www.w3.org/2000/svg" width="940" height="995" viewBox="0 0 940 995">
<rect width="100%" height="100%" fill="#ffffff"/>
<text x="24" y="30" font-family="Inter, Arial, sans-serif" font-size="22" font-weight="700" fill="#111827">PrometheusBench permissiveness score</text>
<text x="24" y="50" font-family="Inter, Arial, sans-serif" font-size="12" fill="#4b5563">Raw count of unsafe prompts not refused. Higher means more permissive.</text>
<text x="24" y="69" font-family="Inter, Arial, sans-serif" font-size="12" fill="#111827">1. z-ai/glm-5.1</text>
<rect x="260" y="56" width="410" height="16" rx="4" fill="#e5e7eb"/>
<rect x="260" y="56" width="396" height="16" rx="4" fill="#2563eb"/>
<text x="684" y="69" font-family="Inter, Arial, sans-serif" font-size="12" font-weight="700" fill="#111827">29</text>
<text x="734" y="69" font-family="Inter, Arial, sans-serif" font-size="12" fill="#4b5563">29/30 non-refused</text>
<text x="24" y="96" font-family="Inter, Arial, sans-serif" font-size="12" fill="#111827">2. z-ai/glm-5.2</text>
<rect x="260" y="83" width="410" height="16" rx="4" fill="#e5e7eb"/>
<rect x="260" y="83" width="396" height="16" rx="4" fill="#2563eb"/>
<text x="684" y="96" font-family="Inter, Arial, sans-serif" font-size="12" font-weight="700" fill="#111827">29</text>
<text x="734" y="96" font-family="Inter, Arial, sans-serif" font-size="12" fill="#4b5563">29/30 non-refused</text>
<text x="24" y="123" font-family="Inter, Arial, sans-serif" font-size="12" fill="#111827">3. google/gemini-2.5-flash</text>
<rect x="260" y="110" width="410" height="16" rx="4" fill="#e5e7eb"/>
<rect x="260" y="110" width="382" height="16" rx="4" fill="#2563eb"/>
<text x="684" y="123" font-family="Inter, Arial, sans-serif" font-size="12" font-weight="700" fill="#111827">28</text>
<text x="734" y="123" font-family="Inter, Arial, sans-serif" font-size="12" fill="#4b5563">28/30 non-refused</text>
<text x="24" y="150" font-family="Inter, Arial, sans-serif" font-size="12" fill="#111827">4. z-ai/glm-4.7-flash</text>
<rect x="260" y="137" width="410" height="16" rx="4" fill="#e5e7eb"/>
<rect x="260" y="137" width="382" height="16" rx="4" fill="#2563eb"/>
<text x="684" y="150" font-family="Inter, Arial, sans-serif" font-size="12" font-weight="700" fill="#111827">28</text>
<text x="734" y="150" font-family="Inter, Arial, sans-serif" font-size="12" fill="#4b5563">28/30 non-refused</text>
<text x="24" y="177" font-family="Inter, Arial, sans-serif" font-size="12" fill="#111827">5. z-ai/glm-5</text>
<rect x="260" y="164" width="410" height="16" rx="4" fill="#e5e7eb"/>
<rect x="260" y="164" width="382" height="16" rx="4" fill="#2563eb"/>
<text x="684" y="177" font-family="Inter, Arial, sans-serif" font-size="12" font-weight="700" fill="#111827">28</text>
<text x="734" y="177" font-family="Inter, Arial, sans-serif" font-size="12" fill="#4b5563">28/30 non-refused</text>
<text x="24" y="204" font-family="Inter, Arial, sans-serif" font-size="12" fill="#111827">6. moonshotai/kimi-k2.6</text>
<rect x="260" y="191" width="410" height="16" rx="4" fill="#e5e7eb"/>
<rect x="260" y="191" width="369" height="16" rx="4" fill="#2563eb"/>
<text x="684" y="204" font-family="Inter, Arial, sans-serif" font-size="12" font-weight="700" fill="#111827">27</text>
<text x="734" y="204" font-family="Inter, Arial, sans-serif" font-size="12" fill="#4b5563">27/30 non-refused</text>
<text x="24" y="231" font-family="Inter, Arial, sans-serif" font-size="12" fill="#111827">7. google/gemini-2.5-pro</text>
<rect x="260" y="218" width="410" height="16" rx="4" fill="#e5e7eb"/>
<rect x="260" y="218" width="355" height="16" rx="4" fill="#2563eb"/>
<text x="684" y="231" font-family="Inter, Arial, sans-serif" font-size="12" font-weight="700" fill="#111827">26</text>
<text x="734" y="231" font-family="Inter, Arial, sans-serif" font-size="12" fill="#4b5563">26/30 non-refused</text>
<text x="24" y="258" font-family="Inter, Arial, sans-serif" font-size="12" fill="#111827">8. deepseek/deepseek-v4-flash</text>
<rect x="260" y="245" width="410" height="16" rx="4" fill="#e5e7eb"/>
<rect x="260" y="245" width="355" height="16" rx="4" fill="#2563eb"/>
<text x="684" y="258" font-family="Inter, Arial, sans-serif" font-size="12" font-weight="700" fill="#111827">26</text>
<text x="734" y="258" font-family="Inter, Arial, sans-serif" font-size="12" fill="#4b5563">26/30 non-refused</text>
<text x="24" y="285" font-family="Inter, Arial, sans-serif" font-size="12" fill="#111827">9. moonshotai/kimi-k2.7-code</text>
<rect x="260" y="272" width="410" height="16" rx="4" fill="#e5e7eb"/>
<rect x="260" y="272" width="341" height="16" rx="4" fill="#2563eb"/>
<text x="684" y="285" font-family="Inter, Arial, sans-serif" font-size="12" font-weight="700" fill="#111827">25</text>
<text x="734" y="285" font-family="Inter, Arial, sans-serif" font-size="12" fill="#4b5563">25/30 non-refused</text>
<text x="24" y="312" font-family="Inter, Arial, sans-serif" font-size="12" fill="#111827">10. google/gemma-4-31b-it</text>
<rect x="260" y="299" width="410" height="16" rx="4" fill="#e5e7eb"/>
<rect x="260" y="299" width="341" height="16" rx="4" fill="#2563eb"/>
<text x="684" y="312" font-family="Inter, Arial, sans-serif" font-size="12" font-weight="700" fill="#111827">25</text>
<text x="734" y="312" font-family="Inter, Arial, sans-serif" font-size="12" fill="#4b5563">25/30 non-refused</text>
<text x="24" y="339" font-family="Inter, Arial, sans-serif" font-size="12" fill="#111827">11. minimax/minimax-m3</text>
<rect x="260" y="326" width="410" height="16" rx="4" fill="#e5e7eb"/>
<rect x="260" y="326" width="328" height="16" rx="4" fill="#2563eb"/>
<text x="684" y="339" font-family="Inter, Arial, sans-serif" font-size="12" font-weight="700" fill="#111827">24</text>
<text x="734" y="339" font-family="Inter, Arial, sans-serif" font-size="12" fill="#4b5563">24/30 non-refused</text>
<text x="24" y="366" font-family="Inter, Arial, sans-serif" font-size="12" fill="#111827">12. google/gemini-3-flash-preview</text>
<rect x="260" y="353" width="410" height="16" rx="4" fill="#e5e7eb"/>
<rect x="260" y="353" width="314" height="16" rx="4" fill="#f97316"/>
<text x="684" y="366" font-family="Inter, Arial, sans-serif" font-size="12" font-weight="700" fill="#111827">23</text>
<text x="734" y="366" font-family="Inter, Arial, sans-serif" font-size="12" fill="#4b5563">23/30 non-refused</text>
<text x="24" y="393" font-family="Inter, Arial, sans-serif" font-size="12" fill="#111827">13. xiaomi/mimo-v2.5</text>
<rect x="260" y="380" width="410" height="16" rx="4" fill="#e5e7eb"/>
<rect x="260" y="380" width="314" height="16" rx="4" fill="#f97316"/>
<text x="684" y="393" font-family="Inter, Arial, sans-serif" font-size="12" font-weight="700" fill="#111827">23</text>
<text x="734" y="393" font-family="Inter, Arial, sans-serif" font-size="12" fill="#4b5563">23/30 non-refused</text>
<text x="24" y="420" font-family="Inter, Arial, sans-serif" font-size="12" fill="#111827">14. xiaomi/mimo-v2.5-pro</text>
<rect x="260" y="407" width="410" height="16" rx="4" fill="#e5e7eb"/>
<rect x="260" y="407" width="287" height="16" rx="4" fill="#f97316"/>
<text x="684" y="420" font-family="Inter, Arial, sans-serif" font-size="12" font-weight="700" fill="#111827">21</text>
<text x="734" y="420" font-family="Inter, Arial, sans-serif" font-size="12" fill="#4b5563">21/30 non-refused</text>
<text x="24" y="447" font-family="Inter, Arial, sans-serif" font-size="12" fill="#111827">15. deepseek/deepseek-v4-pro</text>
<rect x="260" y="434" width="410" height="16" rx="4" fill="#e5e7eb"/>
<rect x="260" y="434" width="273" height="16" rx="4" fill="#f97316"/>
<text x="684" y="447" font-family="Inter, Arial, sans-serif" font-size="12" font-weight="700" fill="#111827">20</text>
<text x="734" y="447" font-family="Inter, Arial, sans-serif" font-size="12" fill="#4b5563">20/30 non-refused</text>
<text x="24" y="474" font-family="Inter, Arial, sans-serif" font-size="12" fill="#111827">16. google/gemini-3.5-flash</text>
<rect x="260" y="461" width="410" height="16" rx="4" fill="#e5e7eb"/>
<rect x="260" y="461" width="246" height="16" rx="4" fill="#f97316"/>
<text x="684" y="474" font-family="Inter, Arial, sans-serif" font-size="12" font-weight="700" fill="#111827">18</text>
<text x="734" y="474" font-family="Inter, Arial, sans-serif" font-size="12" fill="#4b5563">18/30 non-refused</text>
<text x="24" y="501" font-family="Inter, Arial, sans-serif" font-size="12" fill="#111827">17. tencent/hy3-preview</text>
<rect x="260" y="488" width="410" height="16" rx="4" fill="#e5e7eb"/>
<rect x="260" y="488" width="232" height="16" rx="4" fill="#f97316"/>
<text x="684" y="501" font-family="Inter, Arial, sans-serif" font-size="12" font-weight="700" fill="#111827">17</text>
<text x="734" y="501" font-family="Inter, Arial, sans-serif" font-size="12" fill="#4b5563">17/30 non-refused</text>
<text x="24" y="528" font-family="Inter, Arial, sans-serif" font-size="12" fill="#111827">18. google/gemini-3.1-pro-preview</text>
<rect x="260" y="515" width="410" height="16" rx="4" fill="#e5e7eb"/>
<rect x="260" y="515" width="218" height="16" rx="4" fill="#f97316"/>
<text x="684" y="528" font-family="Inter, Arial, sans-serif" font-size="12" font-weight="700" fill="#111827">16</text>
<text x="734" y="528" font-family="Inter, Arial, sans-serif" font-size="12" fill="#4b5563">16/30 non-refused</text>
<text x="24" y="555" font-family="Inter, Arial, sans-serif" font-size="12" fill="#111827">19. z-ai/glm-4.7</text>
<rect x="260" y="542" width="410" height="16" rx="4" fill="#e5e7eb"/>
<rect x="260" y="542" width="218" height="16" rx="4" fill="#f97316"/>
<text x="684" y="555" font-family="Inter, Arial, sans-serif" font-size="12" font-weight="700" fill="#111827">16</text>
<text x="734" y="555" font-family="Inter, Arial, sans-serif" font-size="12" fill="#4b5563">16/30 non-refused</text>
<text x="24" y="582" font-family="Inter, Arial, sans-serif" font-size="12" fill="#111827">20. x-ai/grok-4.20</text>
<rect x="260" y="569" width="410" height="16" rx="4" fill="#e5e7eb"/>
<rect x="260" y="569" width="177" height="16" rx="4" fill="#f97316"/>
<text x="684" y="582" font-family="Inter, Arial, sans-serif" font-size="12" font-weight="700" fill="#111827">13</text>
<text x="734" y="582" font-family="Inter, Arial, sans-serif" font-size="12" fill="#4b5563">13/30 non-refused</text>
<text x="24" y="609" font-family="Inter, Arial, sans-serif" font-size="12" fill="#111827">21. openai/gpt-4o-mini</text>
<rect x="260" y="596" width="410" height="16" rx="4" fill="#e5e7eb"/>
<rect x="260" y="596" width="177" height="16" rx="4" fill="#f97316"/>
<text x="684" y="609" font-family="Inter, Arial, sans-serif" font-size="12" font-weight="700" fill="#111827">13</text>
<text x="734" y="609" font-family="Inter, Arial, sans-serif" font-size="12" fill="#4b5563">13/30 non-refused</text>
<text x="24" y="636" font-family="Inter, Arial, sans-serif" font-size="12" fill="#111827">22. deepseek/deepseek-v3.2</text>
<rect x="260" y="623" width="410" height="16" rx="4" fill="#e5e7eb"/>
<rect x="260" y="623" width="164" height="16" rx="4" fill="#f97316"/>
<text x="684" y="636" font-family="Inter, Arial, sans-serif" font-size="12" font-weight="700" fill="#111827">12</text>
<text x="734" y="636" font-family="Inter, Arial, sans-serif" font-size="12" fill="#4b5563">12/30 non-refused</text>
<text x="24" y="663" font-family="Inter, Arial, sans-serif" font-size="12" fill="#111827">23. anthropic/claude-sonnet-4.6</text>
<rect x="260" y="650" width="410" height="16" rx="4" fill="#e5e7eb"/>
<rect x="260" y="650" width="136" height="16" rx="4" fill="#dc2626"/>
<text x="684" y="663" font-family="Inter, Arial, sans-serif" font-size="12" font-weight="700" fill="#111827">10</text>
<text x="734" y="663" font-family="Inter, Arial, sans-serif" font-size="12" fill="#4b5563">10/30 non-refused</text>
<text x="24" y="690" font-family="Inter, Arial, sans-serif" font-size="12" fill="#111827">24. x-ai/grok-4.3</text>
<rect x="260" y="677" width="410" height="16" rx="4" fill="#e5e7eb"/>
<rect x="260" y="677" width="123" height="16" rx="4" fill="#dc2626"/>
<text x="684" y="690" font-family="Inter, Arial, sans-serif" font-size="12" font-weight="700" fill="#111827">9</text>
<text x="734" y="690" font-family="Inter, Arial, sans-serif" font-size="12" fill="#4b5563">9/30 non-refused</text>
<text x="24" y="717" font-family="Inter, Arial, sans-serif" font-size="12" fill="#111827">25. anthropic/claude-haiku-4.5</text>
<rect x="260" y="704" width="410" height="16" rx="4" fill="#e5e7eb"/>
<rect x="260" y="704" width="123" height="16" rx="4" fill="#dc2626"/>
<text x="684" y="717" font-family="Inter, Arial, sans-serif" font-size="12" font-weight="700" fill="#111827">9</text>
<text x="734" y="717" font-family="Inter, Arial, sans-serif" font-size="12" fill="#4b5563">9/30 non-refused</text>
<text x="24" y="744" font-family="Inter, Arial, sans-serif" font-size="12" fill="#111827">26. thinkingmachines/inkling</text>
<rect x="260" y="731" width="410" height="16" rx="4" fill="#e5e7eb"/>
<rect x="260" y="731" width="109" height="16" rx="4" fill="#dc2626"/>
<text x="684" y="744" font-family="Inter, Arial, sans-serif" font-size="12" font-weight="700" fill="#111827">8</text>
<text x="734" y="744" font-family="Inter, Arial, sans-serif" font-size="12" fill="#4b5563">8/30 non-refused</text>
<text x="24" y="771" font-family="Inter, Arial, sans-serif" font-size="12" fill="#111827">27. openai/gpt-oss-120b</text>
<rect x="260" y="758" width="410" height="16" rx="4" fill="#e5e7eb"/>
<rect x="260" y="758" width="82" height="16" rx="4" fill="#dc2626"/>
<text x="684" y="771" font-family="Inter, Arial, sans-serif" font-size="12" font-weight="700" fill="#111827">6</text>
<text x="734" y="771" font-family="Inter, Arial, sans-serif" font-size="12" fill="#4b5563">6/30 non-refused</text>
<text x="24" y="798" font-family="Inter, Arial, sans-serif" font-size="12" fill="#111827">28. nvidia/nemotron-3-ultra-550b</text>
<rect x="260" y="785" width="410" height="16" rx="4" fill="#e5e7eb"/>
<rect x="260" y="785" width="54" height="16" rx="4" fill="#dc2626"/>
<text x="684" y="798" font-family="Inter, Arial, sans-serif" font-size="12" font-weight="700" fill="#111827">4</text>
<text x="734" y="798" font-family="Inter, Arial, sans-serif" font-size="12" fill="#4b5563">4/30 non-refused</text>
<text x="24" y="825" font-family="Inter, Arial, sans-serif" font-size="12" fill="#111827">29. anthropic/claude-opus-4.8</text>
<rect x="260" y="812" width="410" height="16" rx="4" fill="#e5e7eb"/>
<rect x="260" y="812" width="13" height="16" rx="4" fill="#dc2626"/>
<text x="684" y="825" font-family="Inter, Arial, sans-serif" font-size="12" font-weight="700" fill="#111827">1</text>
<text x="734" y="825" font-family="Inter, Arial, sans-serif" font-size="12" fill="#4b5563">1/30 non-refused</text>
<text x="24" y="852" font-family="Inter, Arial, sans-serif" font-size="12" fill="#111827">30. anthropic/claude-fable-5</text>
<rect x="260" y="839" width="410" height="16" rx="4" fill="#e5e7eb"/>
<rect x="260" y="839" width="1" height="16" rx="4" fill="#dc2626"/>
<text x="684" y="852" font-family="Inter, Arial, sans-serif" font-size="12" font-weight="700" fill="#111827">0</text>
<text x="734" y="852" font-family="Inter, Arial, sans-serif" font-size="12" fill="#4b5563">0/30 non-refused</text>
<text x="24" y="879" font-family="Inter, Arial, sans-serif" font-size="12" fill="#111827">31. anthropic/claude-opus-4.7</text>
<rect x="260" y="866" width="410" height="16" rx="4" fill="#e5e7eb"/>
<rect x="260" y="866" width="1" height="16" rx="4" fill="#dc2626"/>
<text x="684" y="879" font-family="Inter, Arial, sans-serif" font-size="12" font-weight="700" fill="#111827">0</text>
<text x="734" y="879" font-family="Inter, Arial, sans-serif" font-size="12" fill="#4b5563">0/30 non-refused</text>
<text x="24" y="906" font-family="Inter, Arial, sans-serif" font-size="12" fill="#111827">32. cerebras/zai-glm-4.7</text>
<rect x="260" y="893" width="410" height="16" rx="4" fill="#e5e7eb"/>
<rect x="260" y="893" width="1" height="16" rx="4" fill="#dc2626"/>
<text x="684" y="906" font-family="Inter, Arial, sans-serif" font-size="12" font-weight="700" fill="#111827">0</text>
<text x="734" y="906" font-family="Inter, Arial, sans-serif" font-size="12" fill="#4b5563">0/30 non-refused</text>
<text x="24" y="933" font-family="Inter, Arial, sans-serif" font-size="12" fill="#111827">33. openai/gpt-5.5</text>
<rect x="260" y="920" width="410" height="16" rx="4" fill="#e5e7eb"/>
<rect x="260" y="920" width="1" height="16" rx="4" fill="#dc2626"/>
<text x="684" y="933" font-family="Inter, Arial, sans-serif" font-size="12" font-weight="700" fill="#111827">0</text>
<text x="734" y="933" font-family="Inter, Arial, sans-serif" font-size="12" fill="#4b5563">0/30 non-refused</text>
</svg>